<?xml version="1.0" encoding="utf-8"?>
<!-- Generator: Adobe Illustrator 16.0.0, SVG Export Plug-In . SVG Version: 6.00 Build 0)  -->
<!DOCTYPE svg PUBLIC "-//W3C//DTD SVG 1.1//EN" "http://www.w3.org/Graphics/SVG/1.1/DTD/svg11.dtd">
<svg version="1.1" id="Layer_1" xmlns="http://www.w3.org/2000/svg" xmlns:xlink="http://www.w3.org/1999/xlink" x="0px" y="0px"
	 width="85.04px" height="85.04px" viewBox="0 0 85.04 85.04" enable-background="new 0 0 85.04 85.04" xml:space="preserve">
<g id="g4045" transform="translate(-11.277066,-17.568071)">
	<path id="path187" fill="#C4292E" d="M65.836,24.773h19.455l-29.969,50.5c-1.711,2.813-3.381,4.979-5.008,6.497
		c-1.629,1.52-3.133,2.622-4.512,3.313c-1.381,0.69-2.566,1.091-3.561,1.2c-0.992,0.11-1.685,0.166-2.069,0.166H22.291V42.821
		h16.723l0.083,29.968L65.836,24.773z"/>
	<path id="path191" fill="#C4292E" d="M28.558,92.025c0.027-0.189-0.005-0.32-0.1-0.393h0.005c-0.086-0.064-0.211-0.098-0.376-0.098
		h-3.109c-0.186,0-0.357,0.041-0.516,0.128c-0.14,0.071-0.229,0.158-0.264,0.257l-0.33,0.907h2.294l-0.231,0.636h-2.295
		l-0.706,1.938h-0.639l1.267-3.481c0.104-0.283,0.321-0.528,0.648-0.73c0.318-0.195,0.653-0.295,1.004-0.295h3.108
		c0.33,0,0.575,0.094,0.736,0.272c0.177,0.183,0.228,0.47,0.148,0.857L28.558,92.025L28.558,92.025z"/>
	<path id="path193" fill="#C4292E" d="M33.148,93.242c0.014-0.181-0.041-0.302-0.161-0.366c-0.045-0.027-0.095-0.048-0.15-0.059
		c-0.059-0.01-0.117-0.016-0.178-0.016h-1.501c-0.151,0-0.302,0.03-0.45,0.089c-0.171,0.064-0.274,0.147-0.312,0.246l-0.823,2.266
		h-0.641l1.177-3.234h0.641L30.7,92.302c0.126-0.048,0.244-0.082,0.354-0.103c0.108-0.021,0.218-0.032,0.328-0.032h1.506
		c0.285,0,0.519,0.073,0.699,0.217c0.219,0.177,0.283,0.461,0.194,0.857H33.148z"/>
	<path id="path195" fill="#C4292E" d="M38.84,93.128c-0.108,0.3-0.346,0.545-0.711,0.737c-0.302,0.159-0.608,0.235-0.917,0.235
		h-1.501c-0.101,0-0.191-0.009-0.279-0.024c-0.086-0.018-0.19-0.049-0.313-0.099l-0.158,0.434l-0.004,0.01
		c-0.022,0.091,0.03,0.171,0.16,0.243c0.055,0.039,0.111,0.063,0.172,0.081c0.06,0.016,0.121,0.021,0.182,0.021h1.501
		c0.063,0,0.125-0.006,0.188-0.015c0.063-0.011,0.129-0.03,0.192-0.057c0.168-0.066,0.312-0.188,0.429-0.367h0.633
		c-0.197,0.393-0.469,0.676-0.814,0.852c-0.283,0.147-0.569,0.223-0.858,0.223h-1.5c-0.289,0-0.531-0.076-0.728-0.228
		c-0.244-0.189-0.311-0.438-0.198-0.748l0.473-1.294c0.11-0.307,0.344-0.551,0.694-0.732c0.295-0.154,0.607-0.232,0.936-0.232h1.501
		c0.315,0,0.566,0.074,0.755,0.223C38.896,92.573,38.953,92.817,38.84,93.128z M38.196,93.137c0.03-0.082,0-0.152-0.091-0.216
		c-0.098-0.079-0.239-0.119-0.426-0.119h-1.496c-0.131,0-0.277,0.03-0.442,0.089c-0.175,0.062-0.279,0.143-0.315,0.242
		c-0.035,0.098,0.009,0.177,0.133,0.241c0.112,0.063,0.241,0.094,0.384,0.094h1.502c0.179,0,0.347-0.038,0.505-0.113
		C38.084,93.293,38.166,93.22,38.196,93.137z"/>
	<path id="path197" fill="#C4292E" d="M43.873,93.128c-0.109,0.3-0.347,0.545-0.712,0.737c-0.303,0.159-0.606,0.235-0.916,0.235
		h-1.501c-0.101,0-0.192-0.009-0.279-0.024c-0.086-0.018-0.191-0.049-0.314-0.099l-0.157,0.434l-0.004,0.01
		c-0.021,0.091,0.03,0.171,0.159,0.243c0.056,0.039,0.112,0.063,0.172,0.081c0.061,0.016,0.121,0.021,0.183,0.021h1.502
		c0.061,0,0.123-0.006,0.188-0.015c0.064-0.011,0.13-0.03,0.193-0.057c0.168-0.066,0.312-0.188,0.428-0.367h0.634
		c-0.197,0.393-0.469,0.676-0.814,0.852c-0.283,0.147-0.569,0.223-0.858,0.223h-1.501c-0.289,0-0.53-0.076-0.727-0.228
		c-0.244-0.189-0.312-0.438-0.197-0.748l0.471-1.294c0.111-0.307,0.345-0.551,0.695-0.732c0.296-0.154,0.607-0.232,0.935-0.232
		h1.502c0.314,0,0.566,0.074,0.754,0.223C43.93,92.573,43.986,92.817,43.873,93.128z M43.23,93.137
		c0.029-0.082-0.002-0.152-0.092-0.216c-0.098-0.079-0.24-0.119-0.426-0.119h-1.496c-0.131,0-0.279,0.03-0.443,0.089
		c-0.174,0.062-0.278,0.143-0.314,0.242c-0.034,0.098,0.009,0.177,0.134,0.241c0.111,0.063,0.239,0.094,0.383,0.094h1.502
		c0.179,0,0.347-0.038,0.504-0.113C43.117,93.293,43.199,93.22,43.23,93.137z"/>
	<path id="path199" fill="#C4292E" d="M53.539,95.112c-0.306,0.192-0.638,0.29-0.99,0.29h-3.12c-0.327,0-0.571-0.088-0.733-0.264
		c-0.176-0.188-0.226-0.479-0.148-0.866h0.634c-0.021,0.183,0.014,0.313,0.105,0.392H49.28c0.092,0.068,0.219,0.104,0.381,0.104
		h3.119c0.182,0,0.354-0.043,0.51-0.128c0.146-0.074,0.235-0.164,0.271-0.264l0.188-0.516c0.036-0.102,0.009-0.188-0.079-0.264
		c-0.096-0.086-0.236-0.129-0.423-0.129h-3.114c-0.351,0-0.613-0.097-0.787-0.29c-0.185-0.199-0.225-0.445-0.117-0.741l0.188-0.517
		c0.104-0.283,0.321-0.528,0.647-0.73c0.318-0.195,0.653-0.295,1.003-0.295h3.121c0.326,0,0.569,0.094,0.73,0.272
		c0.178,0.183,0.227,0.47,0.146,0.857h-0.634c0.021-0.184-0.014-0.314-0.105-0.393h0.005c-0.085-0.064-0.211-0.098-0.375-0.098
		h-3.121c-0.187,0-0.359,0.041-0.521,0.128c-0.14,0.071-0.228,0.158-0.264,0.257l-0.188,0.517c-0.037,0.104-0.015,0.192,0.071,0.269
		c0.097,0.086,0.24,0.129,0.429,0.129h3.12c0.354,0,0.614,0.097,0.78,0.289c0.186,0.204,0.225,0.448,0.118,0.737l-0.188,0.516
		C54.09,94.667,53.871,94.915,53.539,95.112z"/>
	<path id="path201" fill="#C4292E" d="M58.497,95.166c-0.298,0.157-0.604,0.236-0.916,0.236H56.08c-0.308,0-0.556-0.078-0.745-0.231
		c-0.231-0.189-0.29-0.438-0.178-0.743l0.47-1.294c0.108-0.3,0.346-0.545,0.713-0.738c0.301-0.157,0.608-0.236,0.92-0.236h1.502
		c0.295,0,0.538,0.074,0.729,0.223c0.238,0.192,0.304,0.44,0.19,0.747l-0.473,1.3C59.1,94.726,58.863,94.972,58.497,95.166z
		 M59.043,93.128c0.034-0.097-0.01-0.177-0.133-0.242c-0.106-0.059-0.233-0.087-0.381-0.087h-1.503c-0.149,0-0.299,0.026-0.44,0.082
		c-0.177,0.068-0.282,0.15-0.317,0.247l-0.475,1.305c-0.035,0.098,0.009,0.178,0.134,0.242c0.111,0.063,0.237,0.093,0.379,0.093
		h1.506c0.068,0,0.14-0.007,0.213-0.021c0.074-0.015,0.149-0.035,0.226-0.066c0.178-0.068,0.283-0.152,0.318-0.253L59.043,93.128z"
		/>
	<path id="path203" fill="#C4292E" d="M61.42,92.802l-0.946,2.601h-0.64l1.287-3.537c0.109-0.302,0.317-0.546,0.621-0.729
		c0.268-0.157,0.602-0.236,1.004-0.236l-0.228,0.625c-0.252,0.038-0.434,0.085-0.549,0.143c-0.114,0.06-0.184,0.125-0.21,0.197
		l-0.11,0.303h0.64l-0.23,0.635L61.42,92.802L61.42,92.802z"/>
	<path id="path205" fill="#C4292E" d="M64.316,92.802l-0.945,2.601h-0.646l0.946-2.601h-0.634l0.229-0.635h0.635l0.464-1.272h0.645
		l-0.464,1.272h0.64l-0.229,0.635H64.316z"/>
	<path id="path207" fill="#C4292E" d="M69.2,95.154c-0.271,0.161-0.578,0.243-0.918,0.243c-0.186,0-0.358-0.026-0.52-0.078
		c-0.161-0.053-0.295-0.134-0.407-0.242c-0.191,0.105-0.392,0.188-0.596,0.242c-0.204,0.056-0.398,0.083-0.584,0.083
		c-0.327,0-0.571-0.079-0.733-0.236c-0.18-0.181-0.213-0.426-0.099-0.738l0.822-2.26h0.64l-0.824,2.265
		c-0.033,0.098-0.006,0.176,0.091,0.237c0.104,0.065,0.247,0.098,0.434,0.098c0.188,0,0.354-0.031,0.499-0.098
		c0.142-0.059,0.229-0.14,0.269-0.242l0.508-1.393h0.64l-0.509,1.396c-0.036,0.101-0.006,0.178,0.091,0.231
		c0.104,0.064,0.244,0.098,0.424,0.098c0.191,0,0.36-0.032,0.504-0.098c0.144-0.058,0.23-0.135,0.267-0.231l0.822-2.265h0.646
		l-0.822,2.26C69.731,94.73,69.517,94.972,69.2,95.154z"/>
	<path id="path209" fill="#C4292E" d="M74.016,95.171c-0.301,0.153-0.609,0.231-0.93,0.231h-1.501c-0.323,0-0.578-0.076-0.763-0.228
		c-0.225-0.181-0.28-0.425-0.165-0.738c0.108-0.303,0.346-0.547,0.71-0.731c0.302-0.158,0.607-0.236,0.921-0.236h1.502
		c0.096,0,0.187,0.009,0.272,0.025c0.087,0.018,0.191,0.051,0.314,0.099l0.16-0.438c0.02-0.094-0.031-0.176-0.152-0.246
		c-0.109-0.069-0.227-0.104-0.354-0.104H72.53c-0.064,0-0.13,0.006-0.193,0.016c-0.063,0.011-0.129,0.03-0.193,0.059
		c-0.168,0.064-0.311,0.188-0.426,0.366h-0.635c0.2-0.394,0.471-0.676,0.81-0.853c0.284-0.147,0.571-0.223,0.864-0.223h1.506
		c0.295,0,0.539,0.074,0.729,0.223c0.241,0.187,0.307,0.436,0.19,0.747l-0.471,1.295C74.601,94.739,74.369,94.984,74.016,95.171z
		 M74.07,94.438c0.034-0.097-0.009-0.178-0.134-0.242c-0.11-0.063-0.236-0.095-0.377-0.095h-1.502c-0.175,0-0.345,0.039-0.51,0.114
		c-0.137,0.063-0.219,0.135-0.25,0.217c-0.031,0.085-0.002,0.159,0.084,0.223c0.104,0.075,0.246,0.112,0.43,0.112h1.505
		c0.147,0,0.294-0.026,0.438-0.082C73.931,94.617,74.036,94.534,74.07,94.438z"/>
	<path id="path211" fill="#C4292E" d="M79.554,93.242c0.014-0.181-0.041-0.302-0.16-0.366c-0.045-0.027-0.096-0.048-0.151-0.059
		c-0.058-0.01-0.116-0.016-0.179-0.016h-1.5c-0.15,0-0.303,0.03-0.449,0.089c-0.172,0.064-0.274,0.147-0.313,0.246l-0.823,2.266
		h-0.64l1.176-3.234h0.641l-0.049,0.135c0.127-0.048,0.245-0.082,0.354-0.103c0.108-0.021,0.219-0.032,0.33-0.032h1.504
		c0.286,0,0.52,0.073,0.701,0.217c0.218,0.177,0.28,0.461,0.192,0.857H79.554z"/>
	<path id="path213" fill="#C4292E" d="M85.247,93.128c-0.109,0.3-0.347,0.545-0.712,0.737c-0.302,0.159-0.607,0.235-0.916,0.235
		h-1.501c-0.102,0-0.192-0.009-0.279-0.024c-0.087-0.017-0.192-0.049-0.315-0.099l-0.155,0.434l-0.005,0.01
		c-0.022,0.091,0.03,0.171,0.158,0.243c0.056,0.039,0.113,0.063,0.172,0.081c0.062,0.016,0.121,0.021,0.184,0.021h1.501
		c0.062,0,0.124-0.006,0.188-0.015c0.064-0.011,0.129-0.03,0.194-0.057c0.168-0.066,0.311-0.188,0.427-0.367h0.634
		c-0.197,0.393-0.468,0.676-0.813,0.852c-0.285,0.147-0.57,0.223-0.859,0.223h-1.502c-0.288,0-0.529-0.076-0.727-0.228
		c-0.244-0.189-0.311-0.438-0.197-0.748l0.471-1.294c0.111-0.307,0.345-0.551,0.695-0.732c0.297-0.154,0.608-0.232,0.937-0.232
		h1.501c0.314,0,0.566,0.074,0.754,0.223C85.302,92.573,85.358,92.817,85.247,93.128z M84.603,93.137
		c0.03-0.082,0-0.152-0.092-0.216c-0.098-0.079-0.24-0.119-0.426-0.119h-1.495c-0.13,0-0.278,0.03-0.444,0.089
		c-0.174,0.062-0.277,0.143-0.313,0.242c-0.035,0.098,0.01,0.177,0.133,0.241c0.111,0.063,0.24,0.094,0.385,0.094h1.5
		c0.179,0,0.348-0.038,0.505-0.113C84.491,93.293,84.574,93.22,84.603,93.137z"/>
	<path id="path217" fill="#FFFFFF" d="M34.129,72.533c0.363,0.465,0.546,1.024,0.546,1.685v5.851c0,0.664-0.179,1.22-0.537,1.665
		c-0.37,0.478-0.828,0.717-1.372,0.717H28.2c-0.53,0-0.984-0.239-1.362-0.717c-0.364-0.466-0.546-1.026-0.546-1.686v-5.858
		c0-0.613,0.169-1.134,0.509-1.56c0.338-0.446,0.873-0.731,1.602-0.862v1.191c-0.352,0.084-0.598,0.242-0.738,0.475
		c-0.121,0.2-0.183,0.455-0.183,0.766v5.85c0,0.35,0.081,0.646,0.24,0.892c0.134,0.213,0.294,0.318,0.479,0.318h4.565
		c0.192,0,0.359-0.105,0.499-0.318l-0.01,0.01c0.16-0.239,0.24-0.533,0.24-0.881v-5.851c0-0.304-0.063-0.574-0.192-0.813
		c-0.134-0.284-0.315-0.426-0.547-0.426h-1.678v4.734h-1.181v-5.917h2.868C33.297,71.797,33.75,72.042,34.129,72.533z"/>
	<path id="path219" fill="#FFFFFF" d="M30.531,60.03c0.357,0.445,0.537,1.005,0.537,1.676v7.06h3.606v1.191H28.2
		c-0.53,0-0.984-0.239-1.362-0.717c-0.364-0.465-0.546-1.026-0.546-1.687v-5.849c0-0.651,0.182-1.207,0.546-1.666
		c0.378-0.483,0.832-0.726,1.362-0.726h0.959C29.703,59.315,30.16,59.553,30.531,60.03z M28.2,60.496
		c-0.18,0-0.339,0.109-0.479,0.329c-0.159,0.245-0.24,0.539-0.24,0.881v5.858c0,0.298,0.062,0.564,0.183,0.804
		c0.122,0.266,0.301,0.396,0.537,0.396h1.688v-7.06c0-0.342-0.077-0.636-0.229-0.881c-0.141-0.221-0.308-0.329-0.499-0.329
		L28.2,60.496L28.2,60.496z"/>
	<path id="path221" fill="#FFFFFF" d="M32.805,46.832c0.568,0.097,1.025,0.368,1.371,0.813c0.332,0.434,0.499,0.955,0.499,1.568
		v5.858c0,0.659-0.179,1.217-0.537,1.676c-0.37,0.484-0.828,0.726-1.372,0.726h-6.465v-1.21h6.465c0.192,0,0.359-0.105,0.499-0.318
		l-0.01,0.009c0.16-0.237,0.24-0.531,0.24-0.881v-5.858c0-0.297-0.063-0.556-0.192-0.775v0.012
		c-0.141-0.233-0.381-0.392-0.719-0.476v-0.948L32.805,46.832z"/>
	<path id="path225" fill="#010202" d="M85.291,83.216c0,0.921-0.406,1.695-1.219,2.323c-0.747,0.605-1.681,0.91-2.796,0.91h-9.831
		c-1.028,0-1.9-0.276-2.615-0.829c-0.771-0.596-1.257-1.505-1.463-2.729h1.999c0.141,0.574,0.4,0.985,0.779,1.235h-0.017
		c0.368,0.217,0.808,0.324,1.315,0.324h9.831c0.563,0,1.052-0.13,1.464-0.391c0.366-0.237,0.553-0.52,0.553-0.845V81.59
		c0-0.304-0.187-0.574-0.553-0.813c-0.435-0.281-0.928-0.422-1.479-0.422h-5.232v-1.999h5.248c0.574,0,1.063-0.136,1.464-0.406
		c0.366-0.237,0.553-0.516,0.553-0.828v-1.625c0-0.304-0.187-0.575-0.553-0.813c-0.435-0.281-0.928-0.423-1.479-0.423h-9.815
		c-0.499,0-0.933,0.108-1.3,0.325h0.017c-0.391,0.229-0.655,0.639-0.796,1.235h-1.999c0.194-1.235,0.672-2.136,1.43-2.698
		c0.715-0.574,1.598-0.86,2.648-0.86h9.831c1.095,0,2.025,0.304,2.795,0.909c0.813,0.64,1.22,1.414,1.22,2.324
		c0,0.791-0.032,1.511-0.099,2.16c-0.021,0.325-0.13,0.624-0.323,0.895c-0.088,0.119-0.188,0.243-0.302,0.374
		c-0.113,0.13-0.252,0.271-0.414,0.422c0.313,0.293,0.553,0.563,0.716,0.813c0.184,0.304,0.292,0.596,0.323,0.878
		C85.259,81.677,85.291,82.403,85.291,83.216z"/>
</g>
</svg>
