<?xml version="1.0" encoding="utf-8"?>
<!-- Generator: Adobe Illustrator 16.0.0, SVG Export Plug-In . SVG Version: 6.00 Build 0)  -->
<!DOCTYPE svg PUBLIC "-//W3C//DTD SVG 1.1//EN" "http://www.w3.org/Graphics/SVG/1.1/DTD/svg11.dtd">
<svg version="1.1" id="Layer_1" xmlns="http://www.w3.org/2000/svg" xmlns:xlink="http://www.w3.org/1999/xlink" x="0px" y="0px"
	 width="212.6px" height="85.04px" viewBox="0 0 212.6 85.04" enable-background="new 0 0 212.6 85.04" xml:space="preserve">
<g id="g87" transform="translate(3.4383843,-105.21456)">
	<g id="g89">
		<path id="path91" fill="#C4292E" d="M165.993,109.81h19.455l-29.969,50.5c-1.711,2.814-3.381,4.98-5.01,6.499
			c-1.627,1.518-3.131,2.622-4.512,3.311c-1.379,0.691-2.564,1.091-3.559,1.201c-0.994,0.111-1.686,0.166-2.07,0.166h-17.883
			v-43.628h16.723l0.084,29.968L165.993,109.81z"/>
	</g>
	<g id="g93">
		<rect id="rect95" x="5.629" y="171.486" fill="#C4292E" width="116.818" height="14.173"/>
		<g id="g97">
			<path id="path99" fill="#FFFFFF" d="M30.775,177.008c0.036-0.249-0.007-0.422-0.131-0.517h0.007
				c-0.114-0.086-0.278-0.129-0.497-0.129h-4.099c-0.244,0-0.472,0.056-0.68,0.169c-0.185,0.096-0.3,0.208-0.348,0.34l-0.436,1.196
				h3.024l-0.305,0.836h-3.024l-0.93,2.555h-0.844l1.671-4.587c0.136-0.375,0.422-0.697,0.854-0.965
				c0.42-0.257,0.862-0.387,1.323-0.387h4.098c0.436,0,0.758,0.121,0.971,0.36c0.234,0.239,0.3,0.615,0.194,1.128H30.775
				L30.775,177.008z"/>
			<path id="path101" fill="#FFFFFF" d="M36.825,178.61c0.017-0.235-0.054-0.396-0.212-0.481c-0.06-0.036-0.125-0.063-0.2-0.075
				c-0.075-0.014-0.153-0.021-0.234-0.021H34.2c-0.199,0-0.397,0.038-0.592,0.116c-0.227,0.086-0.362,0.194-0.41,0.326l-1.086,2.982
				h-0.843l1.551-4.261h0.843l-0.064,0.176c0.168-0.063,0.322-0.107,0.468-0.136c0.143-0.027,0.288-0.041,0.433-0.041h1.984
				c0.376,0,0.683,0.095,0.922,0.285c0.287,0.231,0.372,0.607,0.255,1.128L36.825,178.61L36.825,178.61z"/>
			<path id="path103" fill="#FFFFFF" d="M44.326,178.461c-0.145,0.396-0.456,0.719-0.938,0.973
				c-0.396,0.208-0.801,0.312-1.208,0.312h-1.979c-0.131,0-0.253-0.01-0.368-0.032c-0.114-0.022-0.252-0.065-0.415-0.13l-0.208,0.57
				l-0.005,0.014c-0.03,0.118,0.041,0.226,0.21,0.32c0.072,0.05,0.148,0.084,0.228,0.106c0.078,0.02,0.159,0.029,0.239,0.029h1.979
				c0.081,0,0.164-0.007,0.248-0.02c0.085-0.014,0.169-0.04,0.255-0.075c0.221-0.087,0.409-0.248,0.563-0.482h0.835
				c-0.26,0.516-0.616,0.89-1.072,1.121c-0.374,0.194-0.751,0.292-1.133,0.292h-1.978c-0.381,0-0.7-0.099-0.958-0.299
				c-0.322-0.25-0.409-0.578-0.261-0.984l0.621-1.706c0.146-0.404,0.453-0.726,0.916-0.966c0.39-0.204,0.801-0.306,1.231-0.306
				h1.979c0.417,0,0.748,0.098,0.995,0.292C44.4,177.73,44.475,178.053,44.326,178.461z M43.478,178.475
				c0.04-0.108,0-0.204-0.12-0.285c-0.129-0.104-0.317-0.156-0.562-0.156h-1.971c-0.172,0-0.368,0.038-0.585,0.116
				c-0.229,0.082-0.367,0.188-0.415,0.319c-0.046,0.126,0.012,0.232,0.175,0.318c0.147,0.082,0.316,0.122,0.506,0.122h1.979
				c0.234,0,0.457-0.049,0.666-0.148C43.329,178.679,43.439,178.584,43.478,178.475z"/>
			<path id="path105" fill="#FFFFFF" d="M50.96,178.461c-0.144,0.396-0.456,0.719-0.938,0.973c-0.397,0.208-0.802,0.312-1.208,0.312
				h-1.979c-0.132,0-0.253-0.01-0.369-0.032c-0.113-0.022-0.252-0.065-0.414-0.13l-0.208,0.57l-0.005,0.014
				c-0.029,0.118,0.04,0.226,0.209,0.32c0.073,0.05,0.148,0.084,0.228,0.106c0.079,0.02,0.16,0.029,0.24,0.029h1.979
				c0.081,0,0.164-0.007,0.248-0.02c0.085-0.014,0.17-0.04,0.255-0.075c0.221-0.087,0.409-0.248,0.563-0.482h0.835
				c-0.261,0.516-0.617,0.89-1.073,1.121c-0.374,0.194-0.751,0.292-1.132,0.292h-1.979c-0.38,0-0.7-0.099-0.958-0.299
				c-0.322-0.25-0.409-0.578-0.26-0.984l0.621-1.706c0.146-0.404,0.453-0.726,0.917-0.966c0.39-0.204,0.801-0.306,1.23-0.306h1.979
				c0.416,0,0.748,0.098,0.994,0.292C51.034,177.73,51.108,178.053,50.96,178.461z M50.112,178.475
				c0.04-0.108-0.001-0.204-0.121-0.285c-0.129-0.104-0.317-0.156-0.562-0.156h-1.971c-0.172,0-0.368,0.038-0.585,0.116
				c-0.229,0.082-0.367,0.188-0.415,0.319c-0.046,0.126,0.013,0.232,0.176,0.318c0.147,0.082,0.316,0.122,0.507,0.122h1.978
				c0.235,0,0.457-0.049,0.666-0.148C49.962,178.679,50.072,178.584,50.112,178.475z"/>
			<path id="path107" fill="#FFFFFF" d="M63.7,181.078c-0.404,0.253-0.84,0.38-1.306,0.38h-4.112c-0.431,0-0.753-0.115-0.968-0.347
				c-0.231-0.249-0.296-0.629-0.196-1.141h0.836c-0.029,0.239,0.017,0.412,0.138,0.516h-0.007c0.122,0.09,0.289,0.136,0.501,0.136
				h4.112c0.24,0,0.464-0.057,0.672-0.169c0.19-0.101,0.31-0.215,0.358-0.347l0.247-0.68c0.048-0.131,0.013-0.247-0.105-0.348
				c-0.125-0.112-0.312-0.17-0.556-0.17h-4.105c-0.461,0-0.808-0.126-1.037-0.38c-0.244-0.264-0.296-0.588-0.153-0.979l0.248-0.681
				c0.136-0.375,0.422-0.697,0.854-0.965c0.42-0.257,0.862-0.387,1.323-0.387h4.111c0.432,0,0.75,0.121,0.963,0.36
				c0.233,0.239,0.3,0.615,0.193,1.128h-0.835c0.028-0.24-0.018-0.413-0.14-0.517h0.007c-0.113-0.086-0.279-0.129-0.496-0.129
				h-4.112c-0.245,0-0.474,0.056-0.687,0.169c-0.186,0.096-0.3,0.208-0.348,0.34l-0.248,0.681c-0.051,0.136-0.019,0.254,0.096,0.354
				c0.125,0.113,0.313,0.169,0.563,0.169h4.112c0.466,0,0.811,0.127,1.029,0.381c0.243,0.268,0.295,0.59,0.156,0.973l-0.247,0.68
				C64.423,180.491,64.135,180.816,63.7,181.078z"/>
			<path id="path109" fill="#FFFFFF" d="M70.233,181.146c-0.394,0.208-0.796,0.312-1.208,0.312h-1.979
				c-0.402,0-0.729-0.102-0.981-0.305c-0.306-0.25-0.383-0.577-0.236-0.979l0.621-1.706c0.144-0.396,0.456-0.719,0.938-0.973
				c0.397-0.208,0.803-0.312,1.215-0.312h1.979c0.389,0,0.709,0.097,0.96,0.292c0.315,0.254,0.4,0.582,0.253,0.984l-0.623,1.714
				C71.028,180.567,70.715,180.892,70.233,181.146z M70.951,178.461c0.046-0.127-0.012-0.231-0.175-0.319
				c-0.14-0.077-0.308-0.115-0.501-0.115h-1.979c-0.199,0-0.394,0.036-0.583,0.108c-0.231,0.091-0.372,0.198-0.418,0.325
				l-0.625,1.721c-0.046,0.127,0.012,0.232,0.175,0.318c0.147,0.081,0.314,0.122,0.5,0.122h1.984c0.09,0,0.183-0.009,0.282-0.026
				c0.097-0.02,0.195-0.047,0.296-0.089c0.231-0.091,0.372-0.201,0.42-0.332L70.951,178.461z"/>
			<path id="path111" fill="#FFFFFF" d="M74.085,178.033l-1.247,3.425h-0.843l1.696-4.661c0.146-0.399,0.418-0.719,0.818-0.959
				c0.353-0.208,0.792-0.313,1.323-0.313l-0.299,0.823c-0.331,0.049-0.571,0.112-0.723,0.188c-0.15,0.078-0.242,0.165-0.277,0.26
				l-0.146,0.4h0.843l-0.305,0.836H74.085z"/>
			<path id="path113" fill="#FFFFFF" d="M77.903,178.033l-1.247,3.425h-0.85l1.247-3.425h-0.836l0.305-0.836h0.836l0.61-1.678h0.85
				l-0.611,1.678h0.843l-0.304,0.836H77.903z"/>
			<path id="path115" fill="#FFFFFF" d="M84.338,181.132c-0.356,0.213-0.762,0.319-1.21,0.319c-0.244,0-0.473-0.035-0.683-0.103
				c-0.211-0.068-0.391-0.174-0.538-0.319c-0.254,0.142-0.516,0.247-0.785,0.319c-0.269,0.073-0.526,0.108-0.771,0.108
				c-0.432,0-0.752-0.104-0.967-0.312c-0.235-0.236-0.278-0.561-0.129-0.972l1.083-2.978h0.844l-1.087,2.983
				c-0.046,0.127-0.007,0.229,0.117,0.312c0.138,0.086,0.327,0.129,0.571,0.129c0.249,0,0.469-0.043,0.659-0.129
				c0.187-0.077,0.304-0.183,0.354-0.317l0.668-1.835h0.844l-0.671,1.842c-0.048,0.132-0.008,0.232,0.12,0.306
				c0.137,0.086,0.322,0.129,0.559,0.129c0.253,0,0.475-0.043,0.665-0.129c0.188-0.077,0.302-0.179,0.349-0.306l1.086-2.983h0.851
				l-1.083,2.978C85.04,180.572,84.756,180.892,84.338,181.132z"/>
			<path id="path117" fill="#FFFFFF" d="M90.687,181.153c-0.396,0.204-0.805,0.305-1.227,0.305h-1.978
				c-0.427,0-0.763-0.099-1.005-0.299c-0.294-0.235-0.368-0.559-0.218-0.972c0.146-0.398,0.457-0.72,0.937-0.965
				c0.396-0.208,0.803-0.313,1.214-0.313h1.979c0.128,0,0.247,0.014,0.361,0.035c0.115,0.022,0.252,0.065,0.415,0.129l0.21-0.578
				c0.027-0.122-0.04-0.229-0.2-0.326c-0.144-0.09-0.299-0.136-0.466-0.136h-1.978c-0.085,0-0.171,0.007-0.255,0.021
				s-0.169,0.04-0.256,0.075c-0.221,0.086-0.408,0.247-0.562,0.481h-0.836c0.265-0.516,0.621-0.89,1.068-1.121
				c0.375-0.195,0.753-0.292,1.139-0.292h1.983c0.39,0,0.711,0.097,0.961,0.292c0.317,0.245,0.402,0.573,0.253,0.985l-0.621,1.706
				C91.457,180.585,91.151,180.908,90.687,181.153z M90.758,180.187c0.046-0.126-0.012-0.233-0.176-0.319
				c-0.146-0.082-0.313-0.123-0.499-0.123h-1.979c-0.231,0-0.455,0.052-0.672,0.151c-0.18,0.081-0.288,0.176-0.328,0.285
				c-0.042,0.112-0.004,0.21,0.109,0.292c0.138,0.099,0.325,0.148,0.565,0.148h1.983c0.195,0,0.388-0.036,0.576-0.108
				C90.574,180.424,90.712,180.315,90.758,180.187z"/>
			<path id="path119" fill="#FFFFFF" d="M97.986,178.61c0.017-0.235-0.055-0.396-0.212-0.481c-0.06-0.036-0.125-0.063-0.2-0.075
				c-0.075-0.014-0.153-0.021-0.234-0.021h-1.978c-0.199,0-0.397,0.038-0.593,0.116c-0.227,0.086-0.362,0.194-0.41,0.326
				l-1.086,2.982h-0.844l1.552-4.261h0.843l-0.064,0.176c0.167-0.063,0.323-0.107,0.468-0.136c0.144-0.027,0.287-0.041,0.433-0.041
				h1.984c0.376,0,0.683,0.095,0.922,0.285c0.287,0.231,0.372,0.607,0.255,1.128L97.986,178.61L97.986,178.61z"/>
			<path id="path121" fill="#FFFFFF" d="M105.487,178.461c-0.145,0.396-0.457,0.719-0.939,0.973
				c-0.396,0.208-0.801,0.312-1.208,0.312h-1.978c-0.132,0-0.253-0.01-0.369-0.032c-0.114-0.022-0.252-0.065-0.415-0.13l-0.208,0.57
				l-0.005,0.014c-0.029,0.118,0.041,0.226,0.21,0.32c0.072,0.05,0.148,0.084,0.227,0.106c0.079,0.02,0.16,0.029,0.24,0.029h1.979
				c0.081,0,0.164-0.007,0.248-0.02c0.085-0.014,0.17-0.04,0.255-0.075c0.22-0.087,0.41-0.248,0.562-0.482h0.836
				c-0.26,0.516-0.617,0.89-1.072,1.121c-0.375,0.194-0.751,0.292-1.133,0.292h-1.979c-0.381,0-0.7-0.099-0.958-0.299
				c-0.322-0.25-0.409-0.578-0.261-0.984l0.621-1.706c0.146-0.404,0.452-0.726,0.915-0.966c0.392-0.204,0.802-0.306,1.232-0.306
				h1.98c0.416,0,0.748,0.098,0.992,0.292C105.562,177.73,105.636,178.053,105.487,178.461z M104.638,178.475
				c0.041-0.108,0-0.204-0.119-0.285c-0.129-0.104-0.316-0.156-0.561-0.156h-1.971c-0.172,0-0.368,0.038-0.585,0.116
				c-0.229,0.082-0.367,0.188-0.415,0.319c-0.046,0.126,0.013,0.232,0.176,0.318c0.147,0.082,0.316,0.122,0.506,0.122h1.979
				c0.234,0,0.457-0.049,0.666-0.148C104.491,178.679,104.601,178.584,104.638,178.475z"/>
		</g>
	</g>
	<g id="g123">
		<path id="path125" fill="#010202" d="M42.286,160.972c-1.287,1.009-2.842,1.514-4.666,1.514H21.425
			c-1.842,0-3.379-0.496-4.611-1.487c-1.323-1.026-1.984-2.293-1.984-3.798v-12.643c0-1.469,0.661-2.727,1.984-3.771
			c1.287-1.009,2.843-1.514,4.666-1.514h16.222c1.698,0,3.137,0.469,4.317,1.408c1.232,0.938,2.027,2.417,2.386,4.436h-3.298
			c-0.232-0.974-0.67-1.656-1.314-2.045c-0.554-0.336-1.26-0.504-2.118-0.504H21.48c-0.967,0-1.788,0.222-2.468,0.664
			c-0.589,0.372-0.885,0.814-0.885,1.328v12.643c0,0.531,0.295,0.992,0.885,1.381l-0.025-0.025c0.661,0.442,1.475,0.664,2.439,0.664
			h16.195c0.84,0,1.59-0.177,2.252-0.531c0.787-0.372,1.18-0.876,1.18-1.514v-4.648H27.941v-3.267h16.383v7.94
			C44.324,158.672,43.644,159.927,42.286,160.972z"/>
		<path id="path127" fill="#010202" d="M76.901,151.012c-1.233,0.992-2.78,1.486-4.64,1.486H52.714v9.986h-3.298v-17.928
			c0-1.469,0.661-2.727,1.984-3.771c1.287-1.009,2.842-1.514,4.666-1.514h16.194c1.806,0,3.344,0.505,4.612,1.514
			c1.341,1.045,2.011,2.303,2.011,3.771v2.656C78.884,148.719,78.224,149.985,76.901,151.012z M75.614,144.558
			c0-0.495-0.304-0.938-0.912-1.328c-0.68-0.442-1.493-0.664-2.44-0.664H56.04c-0.822,0-1.563,0.168-2.226,0.504
			c-0.733,0.337-1.1,0.833-1.1,1.487v4.676h19.547c0.947,0,1.761-0.212,2.44-0.638c0.607-0.39,0.912-0.851,0.912-1.381V144.558z"/>
		<path id="path129" fill="#010202" d="M113.446,157.307c-0.268,1.576-1.02,2.842-2.252,3.798c-1.197,0.92-2.646,1.381-4.342,1.381
			H90.629c-1.823,0-3.37-0.496-4.639-1.487c-1.34-1.026-2.011-2.293-2.011-3.798v-17.9h3.352v17.9c0,0.531,0.295,0.992,0.885,1.381
			l-0.025-0.025c0.661,0.442,1.474,0.664,2.439,0.664h16.222c0.822,0,1.537-0.178,2.145-0.531h-0.027
			c0.645-0.389,1.082-1.053,1.314-1.992h2.627L113.446,157.307z"/>
	</g>
	<g id="g131">
		<path id="path133" fill="#010202" d="M200.095,157.187c0,1.505-0.664,2.771-1.992,3.798c-1.223,0.992-2.744,1.487-4.568,1.487
			h-16.068c-1.682,0-3.105-0.452-4.275-1.354c-1.256-0.974-2.055-2.461-2.391-4.462h3.268c0.229,0.938,0.654,1.611,1.273,2.02
			h-0.025c0.602,0.354,1.318,0.53,2.15,0.53h16.068c0.92,0,1.717-0.213,2.391-0.638c0.602-0.389,0.902-0.85,0.902-1.381v-2.656
			c0-0.495-0.301-0.938-0.902-1.328c-0.709-0.46-1.514-0.69-2.418-0.69h-8.551v-3.268h8.578c0.938,0,1.736-0.221,2.391-0.664
			c0.604-0.389,0.904-0.841,0.904-1.354v-2.656c0-0.496-0.301-0.938-0.904-1.328c-0.707-0.46-1.514-0.689-2.416-0.689h-16.043
			c-0.813,0-1.521,0.177-2.125,0.53h0.027c-0.637,0.372-1.072,1.046-1.301,2.02H170.8c0.318-2.02,1.098-3.488,2.336-4.409
			c1.168-0.938,2.611-1.407,4.33-1.407h16.068c1.787,0,3.311,0.496,4.568,1.487c1.326,1.045,1.99,2.311,1.99,3.798
			c0,1.292-0.053,2.47-0.158,3.532c-0.035,0.531-0.213,1.019-0.531,1.461c-0.143,0.195-0.305,0.398-0.49,0.611
			s-0.412,0.442-0.678,0.689c0.514,0.479,0.902,0.921,1.168,1.328c0.301,0.496,0.479,0.974,0.531,1.435
			C200.042,154.674,200.095,155.859,200.095,157.187z"/>
	</g>
</g>
</svg>
