<?xml version="1.0" encoding="utf-8"?>
<!-- Generator: Adobe Illustrator 16.0.0, SVG Export Plug-In . SVG Version: 6.00 Build 0)  -->
<!DOCTYPE svg PUBLIC "-//W3C//DTD SVG 1.1//EN" "http://www.w3.org/Graphics/SVG/1.1/DTD/svg11.dtd">
<svg version="1.1" id="Layer_1" xmlns="http://www.w3.org/2000/svg" xmlns:xlink="http://www.w3.org/1999/xlink" x="0px" y="0px"
	 width="36px" height="36px" viewBox="0 0 36 36" enable-background="new 0 0 36 36" xml:space="preserve">
<path fill="none" d="M0,0h36v36H0V0z"/>
<path fill="#FFFFFF" d="M18,12c1.65,0,3-1.35,3-3s-1.35-3-3-3c-1.65,0-3,1.35-3,3S16.35,12,18,12z M18,15c-1.65,0-3,1.35-3,3
	c0,1.65,1.35,3,3,3c1.65,0,3-1.35,3-3C21,16.35,19.65,15,18,15z M18,24c-1.65,0-3,1.35-3,3s1.35,3,3,3c1.65,0,3-1.35,3-3
	S19.65,24,18,24z"/>
</svg>
